<mxfile host="app.diagrams.net" agent="Mozilla/5.0 (Windows NT 10.0; Win64; x64) AppleWebKit/537.36 (KHTML, like Gecko) Chrome/139.0.0.0 Safari/537.36 Edg/139.0.0.0" version="28.1.2" pages="4">
  <diagram id="J0qelXVyJSQe1QuCa80Q" name="Class Diagram">
    <mxGraphModel dx="14" dy="474" grid="1" gridSize="10" guides="1" tooltips="1" connect="1" arrows="1" fold="1" page="1" pageScale="1" pageWidth="850" pageHeight="1100" math="0" shadow="0">
      <root>
        <mxCell id="0" />
        <mxCell id="1" parent="0" />
        <mxCell id="JvGm0YyHXYRL7gA4YKEI-1" value="Social Media Class Diagram" style="text;align=center;fontStyle=1;verticalAlign=middle;spacingLeft=3;spacingRight=3;strokeColor=#b85450;rotatable=0;points=[[0,0.5],[1,0.5]];portConstraint=eastwest;html=1;fillColor=#f8cecc;rounded=1;glass=0;sketch=1;curveFitting=1;jiggle=2;" parent="1" vertex="1">
          <mxGeometry x="1185" y="40" width="170" height="26" as="geometry" />
        </mxCell>
        <mxCell id="GFM-Qxi75Xxxu6SA4LLM-1" value="User" style="swimlane;fontStyle=1;align=center;verticalAlign=top;childLayout=stackLayout;horizontal=1;startSize=26;horizontalStack=0;resizeParent=1;resizeParentMax=0;resizeLast=0;collapsible=1;marginBottom=0;whiteSpace=wrap;html=1;fillColor=#909090;" parent="1" vertex="1">
          <mxGeometry x="1060" y="135" width="160" height="220" as="geometry" />
        </mxCell>
        <mxCell id="GFM-Qxi75Xxxu6SA4LLM-2" value="&lt;div&gt;- userId: int&lt;/div&gt;&lt;div&gt;- username: string&lt;/div&gt;&lt;div&gt;- email: string&lt;/div&gt;&lt;div&gt;- password: string&lt;/div&gt;&lt;div&gt;- bio: string&lt;/div&gt;" style="text;strokeColor=none;fillColor=none;align=left;verticalAlign=top;spacingLeft=4;spacingRight=4;overflow=hidden;rotatable=0;points=[[0,0.5],[1,0.5]];portConstraint=eastwest;whiteSpace=wrap;html=1;" parent="GFM-Qxi75Xxxu6SA4LLM-1" vertex="1">
          <mxGeometry y="26" width="160" height="84" as="geometry" />
        </mxCell>
        <mxCell id="GFM-Qxi75Xxxu6SA4LLM-3" value="" style="line;strokeWidth=1;fillColor=none;align=left;verticalAlign=middle;spacingTop=-1;spacingLeft=3;spacingRight=3;rotatable=0;labelPosition=right;points=[];portConstraint=eastwest;strokeColor=inherit;" parent="GFM-Qxi75Xxxu6SA4LLM-1" vertex="1">
          <mxGeometry y="110" width="160" height="8" as="geometry" />
        </mxCell>
        <mxCell id="GFM-Qxi75Xxxu6SA4LLM-4" value="&lt;div&gt;+ login()&lt;/div&gt;&lt;div&gt;+ logout()&lt;/div&gt;&lt;div&gt;+ editProfile()&lt;/div&gt;&lt;div&gt;+ followUser()&lt;/div&gt;&lt;div&gt;+ unfollowUser()&lt;/div&gt;&lt;div&gt;+ viewFeed()&lt;/div&gt;" style="text;strokeColor=none;fillColor=none;align=left;verticalAlign=top;spacingLeft=4;spacingRight=4;overflow=hidden;rotatable=0;points=[[0,0.5],[1,0.5]];portConstraint=eastwest;whiteSpace=wrap;html=1;" parent="GFM-Qxi75Xxxu6SA4LLM-1" vertex="1">
          <mxGeometry y="118" width="160" height="102" as="geometry" />
        </mxCell>
        <mxCell id="GFM-Qxi75Xxxu6SA4LLM-5" value="Post" style="swimlane;fontStyle=1;align=center;verticalAlign=top;childLayout=stackLayout;horizontal=1;startSize=26;horizontalStack=0;resizeParent=1;resizeParentMax=0;resizeLast=0;collapsible=1;marginBottom=0;whiteSpace=wrap;html=1;fillColor=#e1d5e7;strokeColor=#9673a6;" parent="1" vertex="1">
          <mxGeometry x="890" y="416" width="160" height="220" as="geometry" />
        </mxCell>
        <mxCell id="GFM-Qxi75Xxxu6SA4LLM-6" value="&lt;div&gt;- postId: int&lt;/div&gt;&lt;div&gt;- caption: string&lt;/div&gt;&lt;div&gt;- mediaURL: string&lt;/div&gt;&lt;div&gt;- timestamp: datetime&lt;/div&gt;&lt;div&gt;- likeCount: int&lt;/div&gt;" style="text;strokeColor=none;fillColor=none;align=left;verticalAlign=top;spacingLeft=4;spacingRight=4;overflow=hidden;rotatable=0;points=[[0,0.5],[1,0.5]];portConstraint=eastwest;whiteSpace=wrap;html=1;" parent="GFM-Qxi75Xxxu6SA4LLM-5" vertex="1">
          <mxGeometry y="26" width="160" height="84" as="geometry" />
        </mxCell>
        <mxCell id="GFM-Qxi75Xxxu6SA4LLM-7" value="" style="line;strokeWidth=1;fillColor=none;align=left;verticalAlign=middle;spacingTop=-1;spacingLeft=3;spacingRight=3;rotatable=0;labelPosition=right;points=[];portConstraint=eastwest;strokeColor=inherit;" parent="GFM-Qxi75Xxxu6SA4LLM-5" vertex="1">
          <mxGeometry y="110" width="160" height="8" as="geometry" />
        </mxCell>
        <mxCell id="GFM-Qxi75Xxxu6SA4LLM-8" value="&lt;div&gt;+ createPost()&lt;/div&gt;&lt;div&gt;+ deletePost()&lt;/div&gt;&lt;div&gt;+ editPost()&lt;/div&gt;&lt;div&gt;+ likePost()&lt;/div&gt;&lt;div&gt;+ commentPost()&lt;/div&gt;" style="text;strokeColor=none;fillColor=none;align=left;verticalAlign=top;spacingLeft=4;spacingRight=4;overflow=hidden;rotatable=0;points=[[0,0.5],[1,0.5]];portConstraint=eastwest;whiteSpace=wrap;html=1;" parent="GFM-Qxi75Xxxu6SA4LLM-5" vertex="1">
          <mxGeometry y="118" width="160" height="102" as="geometry" />
        </mxCell>
        <mxCell id="GFM-Qxi75Xxxu6SA4LLM-9" value="Story" style="swimlane;fontStyle=1;align=center;verticalAlign=top;childLayout=stackLayout;horizontal=1;startSize=26;horizontalStack=0;resizeParent=1;resizeParentMax=0;resizeLast=0;collapsible=1;marginBottom=0;whiteSpace=wrap;html=1;fillColor=#e1d5e7;strokeColor=#9673a6;" parent="1" vertex="1">
          <mxGeometry x="1090" y="416" width="160" height="220" as="geometry" />
        </mxCell>
        <mxCell id="GFM-Qxi75Xxxu6SA4LLM-10" value="&lt;div&gt;- userId: int&lt;/div&gt;&lt;div&gt;- username: string&lt;/div&gt;&lt;div&gt;&lt;div&gt;- mediaURL: string&lt;/div&gt;&lt;div&gt;- timestamp: datetime&lt;/div&gt;&lt;div&gt;- expiryTime: datetime&lt;/div&gt;&lt;/div&gt;" style="text;strokeColor=none;fillColor=none;align=left;verticalAlign=top;spacingLeft=4;spacingRight=4;overflow=hidden;rotatable=0;points=[[0,0.5],[1,0.5]];portConstraint=eastwest;whiteSpace=wrap;html=1;" parent="GFM-Qxi75Xxxu6SA4LLM-9" vertex="1">
          <mxGeometry y="26" width="160" height="84" as="geometry" />
        </mxCell>
        <mxCell id="GFM-Qxi75Xxxu6SA4LLM-11" value="" style="line;strokeWidth=1;fillColor=none;align=left;verticalAlign=middle;spacingTop=-1;spacingLeft=3;spacingRight=3;rotatable=0;labelPosition=right;points=[];portConstraint=eastwest;strokeColor=inherit;" parent="GFM-Qxi75Xxxu6SA4LLM-9" vertex="1">
          <mxGeometry y="110" width="160" height="8" as="geometry" />
        </mxCell>
        <mxCell id="GFM-Qxi75Xxxu6SA4LLM-12" value="&lt;div&gt;+ createStory()&lt;/div&gt;&lt;div&gt;+ viewStory()&lt;/div&gt;&lt;div&gt;+ deleteStory()&lt;/div&gt;" style="text;strokeColor=none;fillColor=none;align=left;verticalAlign=top;spacingLeft=4;spacingRight=4;overflow=hidden;rotatable=0;points=[[0,0.5],[1,0.5]];portConstraint=eastwest;whiteSpace=wrap;html=1;" parent="GFM-Qxi75Xxxu6SA4LLM-9" vertex="1">
          <mxGeometry y="118" width="160" height="102" as="geometry" />
        </mxCell>
        <mxCell id="GFM-Qxi75Xxxu6SA4LLM-13" value="Message (DM)" style="swimlane;fontStyle=1;align=center;verticalAlign=top;childLayout=stackLayout;horizontal=1;startSize=26;horizontalStack=0;resizeParent=1;resizeParentMax=0;resizeLast=0;collapsible=1;marginBottom=0;whiteSpace=wrap;html=1;fillColor=#909090;" parent="1" vertex="1">
          <mxGeometry x="1390" y="150" width="160" height="140" as="geometry" />
        </mxCell>
        <mxCell id="GFM-Qxi75Xxxu6SA4LLM-14" value="&lt;div&gt;- messageID: int&lt;/div&gt;&lt;div&gt;- text: string&lt;/div&gt;&lt;div&gt;- timestamp: datetime&lt;/div&gt;" style="text;strokeColor=none;fillColor=none;align=left;verticalAlign=top;spacingLeft=4;spacingRight=4;overflow=hidden;rotatable=0;points=[[0,0.5],[1,0.5]];portConstraint=eastwest;whiteSpace=wrap;html=1;" parent="GFM-Qxi75Xxxu6SA4LLM-13" vertex="1">
          <mxGeometry y="26" width="160" height="54" as="geometry" />
        </mxCell>
        <mxCell id="GFM-Qxi75Xxxu6SA4LLM-15" value="" style="line;strokeWidth=1;fillColor=none;align=left;verticalAlign=middle;spacingTop=-1;spacingLeft=3;spacingRight=3;rotatable=0;labelPosition=right;points=[];portConstraint=eastwest;strokeColor=inherit;" parent="GFM-Qxi75Xxxu6SA4LLM-13" vertex="1">
          <mxGeometry y="80" width="160" height="8" as="geometry" />
        </mxCell>
        <mxCell id="GFM-Qxi75Xxxu6SA4LLM-16" value="&lt;div&gt;+ sendMessage()&lt;/div&gt;&lt;div&gt;+ deleteMessage()&lt;/div&gt;" style="text;strokeColor=none;fillColor=none;align=left;verticalAlign=top;spacingLeft=4;spacingRight=4;overflow=hidden;rotatable=0;points=[[0,0.5],[1,0.5]];portConstraint=eastwest;whiteSpace=wrap;html=1;" parent="GFM-Qxi75Xxxu6SA4LLM-13" vertex="1">
          <mxGeometry y="88" width="160" height="52" as="geometry" />
        </mxCell>
        <mxCell id="GFM-Qxi75Xxxu6SA4LLM-17" value="Admin" style="swimlane;fontStyle=1;align=center;verticalAlign=top;childLayout=stackLayout;horizontal=1;startSize=26;horizontalStack=0;resizeParent=1;resizeParentMax=0;resizeLast=0;collapsible=1;marginBottom=0;whiteSpace=wrap;html=1;fillColor=#909090;" parent="1" vertex="1">
          <mxGeometry x="1370" y="710" width="160" height="160" as="geometry" />
        </mxCell>
        <mxCell id="GFM-Qxi75Xxxu6SA4LLM-18" value="&lt;div&gt;- adminID: int&lt;/div&gt;&lt;div&gt;- name: string&lt;/div&gt;&lt;div&gt;- email: string&lt;/div&gt;" style="text;strokeColor=none;fillColor=none;align=left;verticalAlign=top;spacingLeft=4;spacingRight=4;overflow=hidden;rotatable=0;points=[[0,0.5],[1,0.5]];portConstraint=eastwest;whiteSpace=wrap;html=1;" parent="GFM-Qxi75Xxxu6SA4LLM-17" vertex="1">
          <mxGeometry y="26" width="160" height="64" as="geometry" />
        </mxCell>
        <mxCell id="GFM-Qxi75Xxxu6SA4LLM-19" value="" style="line;strokeWidth=1;fillColor=none;align=left;verticalAlign=middle;spacingTop=-1;spacingLeft=3;spacingRight=3;rotatable=0;labelPosition=right;points=[];portConstraint=eastwest;strokeColor=inherit;" parent="GFM-Qxi75Xxxu6SA4LLM-17" vertex="1">
          <mxGeometry y="90" width="160" height="8" as="geometry" />
        </mxCell>
        <mxCell id="GFM-Qxi75Xxxu6SA4LLM-20" value="&lt;div&gt;+ banUser(userID)&lt;/div&gt;&lt;div&gt;+ removeContent(postID)&lt;/div&gt;&lt;div&gt;+ monitorReports()&lt;/div&gt;" style="text;strokeColor=none;fillColor=none;align=left;verticalAlign=top;spacingLeft=4;spacingRight=4;overflow=hidden;rotatable=0;points=[[0,0.5],[1,0.5]];portConstraint=eastwest;whiteSpace=wrap;html=1;" parent="GFM-Qxi75Xxxu6SA4LLM-17" vertex="1">
          <mxGeometry y="98" width="160" height="62" as="geometry" />
        </mxCell>
        <mxCell id="GFM-Qxi75Xxxu6SA4LLM-21" value="DataBase" style="swimlane;fontStyle=1;align=center;verticalAlign=top;childLayout=stackLayout;horizontal=1;startSize=26;horizontalStack=0;resizeParent=1;resizeParentMax=0;resizeLast=0;collapsible=1;marginBottom=0;whiteSpace=wrap;html=1;fillColor=#d5e8d4;strokeColor=#82b366;" parent="1" vertex="1">
          <mxGeometry x="1360" y="530" width="160" height="106" as="geometry" />
        </mxCell>
        <mxCell id="GFM-Qxi75Xxxu6SA4LLM-23" value="" style="line;strokeWidth=1;fillColor=none;align=left;verticalAlign=middle;spacingTop=-1;spacingLeft=3;spacingRight=3;rotatable=0;labelPosition=right;points=[];portConstraint=eastwest;strokeColor=inherit;" parent="GFM-Qxi75Xxxu6SA4LLM-21" vertex="1">
          <mxGeometry y="26" width="160" height="8" as="geometry" />
        </mxCell>
        <mxCell id="GFM-Qxi75Xxxu6SA4LLM-24" value="&lt;div&gt;+ findRows( )&lt;/div&gt;&lt;div&gt;&lt;br&gt;&lt;/div&gt;&lt;div&gt;+ addRows ( )&lt;/div&gt;" style="text;strokeColor=none;fillColor=none;align=left;verticalAlign=top;spacingLeft=4;spacingRight=4;overflow=hidden;rotatable=0;points=[[0,0.5],[1,0.5]];portConstraint=eastwest;whiteSpace=wrap;html=1;" parent="GFM-Qxi75Xxxu6SA4LLM-21" vertex="1">
          <mxGeometry y="34" width="160" height="72" as="geometry" />
        </mxCell>
        <mxCell id="GFM-Qxi75Xxxu6SA4LLM-25" value="Comments&lt;span style=&quot;white-space: pre;&quot;&gt;&#x9;&lt;/span&gt;" style="swimlane;fontStyle=1;align=center;verticalAlign=top;childLayout=stackLayout;horizontal=1;startSize=26;horizontalStack=0;resizeParent=1;resizeParentMax=0;resizeLast=0;collapsible=1;marginBottom=0;whiteSpace=wrap;html=1;fillColor=#909090;" parent="1" vertex="1">
          <mxGeometry x="910" y="710" width="160" height="170" as="geometry" />
        </mxCell>
        <mxCell id="GFM-Qxi75Xxxu6SA4LLM-26" value="&lt;div&gt;- commentID: int&lt;/div&gt;&lt;div&gt;- text: string&lt;/div&gt;&lt;div&gt;- timestamp: datetime&lt;/div&gt;" style="text;strokeColor=none;fillColor=none;align=left;verticalAlign=top;spacingLeft=4;spacingRight=4;overflow=hidden;rotatable=0;points=[[0,0.5],[1,0.5]];portConstraint=eastwest;whiteSpace=wrap;html=1;" parent="GFM-Qxi75Xxxu6SA4LLM-25" vertex="1">
          <mxGeometry y="26" width="160" height="84" as="geometry" />
        </mxCell>
        <mxCell id="GFM-Qxi75Xxxu6SA4LLM-27" value="" style="line;strokeWidth=1;fillColor=none;align=left;verticalAlign=middle;spacingTop=-1;spacingLeft=3;spacingRight=3;rotatable=0;labelPosition=right;points=[];portConstraint=eastwest;strokeColor=inherit;" parent="GFM-Qxi75Xxxu6SA4LLM-25" vertex="1">
          <mxGeometry y="110" width="160" height="8" as="geometry" />
        </mxCell>
        <mxCell id="GFM-Qxi75Xxxu6SA4LLM-28" value="&lt;div&gt;+ addComment()&lt;/div&gt;&lt;div&gt;+ deleteComment()&lt;/div&gt;" style="text;strokeColor=none;fillColor=none;align=left;verticalAlign=top;spacingLeft=4;spacingRight=4;overflow=hidden;rotatable=0;points=[[0,0.5],[1,0.5]];portConstraint=eastwest;whiteSpace=wrap;html=1;" parent="GFM-Qxi75Xxxu6SA4LLM-25" vertex="1">
          <mxGeometry y="118" width="160" height="52" as="geometry" />
        </mxCell>
        <mxCell id="GFM-Qxi75Xxxu6SA4LLM-29" value="+1" style="text;align=center;fontStyle=1;verticalAlign=middle;spacingLeft=3;spacingRight=3;strokeColor=none;rotatable=0;points=[[0,0.5],[1,0.5]];portConstraint=eastwest;html=1;" parent="1" vertex="1">
          <mxGeometry x="990" y="290" width="80" height="26" as="geometry" />
        </mxCell>
        <mxCell id="GFM-Qxi75Xxxu6SA4LLM-30" value="+0..*" style="text;align=center;fontStyle=1;verticalAlign=middle;spacingLeft=3;spacingRight=3;strokeColor=none;rotatable=0;points=[[0,0.5],[1,0.5]];portConstraint=eastwest;html=1;" parent="1" vertex="1">
          <mxGeometry x="960" y="390" width="80" height="26" as="geometry" />
        </mxCell>
        <mxCell id="GFM-Qxi75Xxxu6SA4LLM-31" value="+1" style="text;align=center;fontStyle=1;verticalAlign=middle;spacingLeft=3;spacingRight=3;strokeColor=none;rotatable=0;points=[[0,0.5],[1,0.5]];portConstraint=eastwest;html=1;" parent="1" vertex="1">
          <mxGeometry x="1130" y="355" width="80" height="26" as="geometry" />
        </mxCell>
        <mxCell id="GFM-Qxi75Xxxu6SA4LLM-32" value="+0..*" style="text;align=center;fontStyle=1;verticalAlign=middle;spacingLeft=3;spacingRight=3;strokeColor=none;rotatable=0;points=[[0,0.5],[1,0.5]];portConstraint=eastwest;html=1;" parent="1" vertex="1">
          <mxGeometry x="1130" y="390" width="80" height="26" as="geometry" />
        </mxCell>
        <mxCell id="GFM-Qxi75Xxxu6SA4LLM-36" value="" style="endArrow=none;html=1;rounded=0;entryX=0.818;entryY=1.004;entryDx=0;entryDy=0;entryPerimeter=0;exitX=0.631;exitY=-0.005;exitDx=0;exitDy=0;exitPerimeter=0;" parent="1" source="GFM-Qxi75Xxxu6SA4LLM-9" target="GFM-Qxi75Xxxu6SA4LLM-4" edge="1">
          <mxGeometry relative="1" as="geometry">
            <mxPoint x="1191" y="410" as="sourcePoint" />
            <mxPoint x="1093" y="380" as="targetPoint" />
          </mxGeometry>
        </mxCell>
        <mxCell id="GFM-Qxi75Xxxu6SA4LLM-37" value="" style="resizable=0;html=1;whiteSpace=wrap;align=left;verticalAlign=bottom;" parent="GFM-Qxi75Xxxu6SA4LLM-36" connectable="0" vertex="1">
          <mxGeometry x="-1" relative="1" as="geometry" />
        </mxCell>
        <mxCell id="GFM-Qxi75Xxxu6SA4LLM-38" value="" style="resizable=0;html=1;whiteSpace=wrap;align=right;verticalAlign=bottom;" parent="GFM-Qxi75Xxxu6SA4LLM-36" connectable="0" vertex="1">
          <mxGeometry x="1" relative="1" as="geometry" />
        </mxCell>
        <mxCell id="GFM-Qxi75Xxxu6SA4LLM-40" value="" style="endArrow=none;html=1;rounded=0;exitX=1.006;exitY=0.655;exitDx=0;exitDy=0;exitPerimeter=0;" parent="1" source="GFM-Qxi75Xxxu6SA4LLM-2" edge="1">
          <mxGeometry relative="1" as="geometry">
            <mxPoint x="1190" y="400" as="sourcePoint" />
            <mxPoint x="1390" y="214" as="targetPoint" />
          </mxGeometry>
        </mxCell>
        <mxCell id="GFM-Qxi75Xxxu6SA4LLM-41" value="1" style="resizable=0;html=1;whiteSpace=wrap;align=left;verticalAlign=bottom;" parent="GFM-Qxi75Xxxu6SA4LLM-40" connectable="0" vertex="1">
          <mxGeometry x="-1" relative="1" as="geometry" />
        </mxCell>
        <mxCell id="GFM-Qxi75Xxxu6SA4LLM-42" value="&lt;span style=&quot;font-weight: 700; text-align: center;&quot;&gt;+0..*&lt;/span&gt;" style="resizable=0;html=1;whiteSpace=wrap;align=right;verticalAlign=bottom;" parent="GFM-Qxi75Xxxu6SA4LLM-40" connectable="0" vertex="1">
          <mxGeometry x="1" relative="1" as="geometry" />
        </mxCell>
        <mxCell id="GFM-Qxi75Xxxu6SA4LLM-45" value="+0..*" style="text;align=center;fontStyle=1;verticalAlign=middle;spacingLeft=3;spacingRight=3;strokeColor=none;rotatable=0;points=[[0,0.5],[1,0.5]];portConstraint=eastwest;html=1;" parent="1" vertex="1">
          <mxGeometry x="1200" y="300" width="80" height="26" as="geometry" />
        </mxCell>
        <mxCell id="GFM-Qxi75Xxxu6SA4LLM-46" value="+1" style="text;align=center;fontStyle=1;verticalAlign=middle;spacingLeft=3;spacingRight=3;strokeColor=none;rotatable=0;points=[[0,0.5],[1,0.5]];portConstraint=eastwest;html=1;" parent="1" vertex="1">
          <mxGeometry x="1440" y="504" width="80" height="26" as="geometry" />
        </mxCell>
        <mxCell id="jRFiyA8246VnazGFI5aF-1" value="" style="endArrow=none;html=1;rounded=0;edgeStyle=orthogonalEdgeStyle;entryX=-0.012;entryY=0.618;entryDx=0;entryDy=0;entryPerimeter=0;exitX=0.5;exitY=0;exitDx=0;exitDy=0;" parent="1" source="GFM-Qxi75Xxxu6SA4LLM-5" target="GFM-Qxi75Xxxu6SA4LLM-4" edge="1">
          <mxGeometry width="50" height="50" relative="1" as="geometry">
            <mxPoint x="965" y="355" as="sourcePoint" />
            <mxPoint x="1010" y="290" as="targetPoint" />
          </mxGeometry>
        </mxCell>
        <mxCell id="jRFiyA8246VnazGFI5aF-2" value="" style="endArrow=none;html=1;rounded=0;exitX=0.431;exitY=-0.006;exitDx=0;exitDy=0;exitPerimeter=0;entryX=0.563;entryY=0.99;entryDx=0;entryDy=0;entryPerimeter=0;" parent="1" source="GFM-Qxi75Xxxu6SA4LLM-25" target="GFM-Qxi75Xxxu6SA4LLM-8" edge="1">
          <mxGeometry width="50" height="50" relative="1" as="geometry">
            <mxPoint x="965" y="700" as="sourcePoint" />
            <mxPoint x="980" y="640" as="targetPoint" />
          </mxGeometry>
        </mxCell>
        <mxCell id="jRFiyA8246VnazGFI5aF-3" value="" style="endArrow=none;html=1;rounded=0;entryX=0.506;entryY=1.042;entryDx=0;entryDy=0;entryPerimeter=0;exitX=0.444;exitY=-0.012;exitDx=0;exitDy=0;exitPerimeter=0;" parent="1" source="GFM-Qxi75Xxxu6SA4LLM-17" target="GFM-Qxi75Xxxu6SA4LLM-24" edge="1">
          <mxGeometry width="50" height="50" relative="1" as="geometry">
            <mxPoint x="1530" y="690" as="sourcePoint" />
            <mxPoint x="1580" y="640" as="targetPoint" />
          </mxGeometry>
        </mxCell>
        <mxCell id="jRFiyA8246VnazGFI5aF-4" value="" style="endArrow=none;html=1;rounded=0;edgeStyle=orthogonalEdgeStyle;entryX=0.5;entryY=0;entryDx=0;entryDy=0;" parent="1" target="GFM-Qxi75Xxxu6SA4LLM-21" edge="1">
          <mxGeometry width="50" height="50" relative="1" as="geometry">
            <mxPoint x="1220" y="320" as="sourcePoint" />
            <mxPoint x="1300" y="300" as="targetPoint" />
          </mxGeometry>
        </mxCell>
      </root>
    </mxGraphModel>
  </diagram>
  <diagram id="j6LIXSwhTyBmLoPgxZQc" name="Use Case Diagram">
    <mxGraphModel dx="864" dy="474" grid="1" gridSize="10" guides="1" tooltips="1" connect="1" arrows="1" fold="1" page="1" pageScale="1" pageWidth="850" pageHeight="1100" math="0" shadow="0">
      <root>
        <mxCell id="0" />
        <mxCell id="1" parent="0" />
        <mxCell id="y_27c51pW98yB0ZTRsNP-1" value="" style="rounded=0;whiteSpace=wrap;html=1;fillColor=#dae8fc;strokeColor=#6c8ebf;" parent="1" vertex="1">
          <mxGeometry x="200" y="150" width="430" height="690" as="geometry" />
        </mxCell>
        <mxCell id="y_27c51pW98yB0ZTRsNP-2" value="Use Case For Social Media" style="text;align=center;fontStyle=1;verticalAlign=middle;spacingLeft=3;spacingRight=3;rotatable=0;points=[[0,0.5],[1,0.5]];portConstraint=eastwest;html=1;fillStyle=cross-hatch;sketch=1;curveFitting=1;jiggle=2;fillColor=#f8cecc;strokeColor=#b85450;" parent="1" vertex="1">
          <mxGeometry x="248" y="160" width="355" height="26" as="geometry" />
        </mxCell>
        <mxCell id="y_27c51pW98yB0ZTRsNP-3" value="User" style="shape=umlActor;verticalLabelPosition=bottom;verticalAlign=top;html=1;" parent="1" vertex="1">
          <mxGeometry x="60" y="435" width="30" height="60" as="geometry" />
        </mxCell>
        <mxCell id="y_27c51pW98yB0ZTRsNP-4" value="Admin" style="shape=umlActor;verticalLabelPosition=bottom;verticalAlign=top;html=1;" parent="1" vertex="1">
          <mxGeometry x="770" y="410" width="30" height="60" as="geometry" />
        </mxCell>
        <mxCell id="y_27c51pW98yB0ZTRsNP-9" value="Generate Reports" style="ellipse;whiteSpace=wrap;html=1;" parent="1" vertex="1">
          <mxGeometry x="440" y="320" width="140" height="70" as="geometry" />
        </mxCell>
        <mxCell id="y_27c51pW98yB0ZTRsNP-10" value="Delete Account" style="ellipse;whiteSpace=wrap;html=1;" parent="1" vertex="1">
          <mxGeometry x="240" y="560" width="140" height="70" as="geometry" />
        </mxCell>
        <mxCell id="y_27c51pW98yB0ZTRsNP-11" value="Creates AProfile" style="ellipse;whiteSpace=wrap;html=1;" parent="1" vertex="1">
          <mxGeometry x="240" y="210" width="140" height="70" as="geometry" />
        </mxCell>
        <mxCell id="y_27c51pW98yB0ZTRsNP-12" value="" style="endArrow=none;html=1;rounded=0;entryX=1;entryY=0.5;entryDx=0;entryDy=0;" parent="1" target="y_27c51pW98yB0ZTRsNP-9" edge="1">
          <mxGeometry width="50" height="50" relative="1" as="geometry">
            <mxPoint x="770" y="430" as="sourcePoint" />
            <mxPoint x="570" y="440" as="targetPoint" />
          </mxGeometry>
        </mxCell>
        <mxCell id="y_27c51pW98yB0ZTRsNP-14" value="" style="endArrow=none;html=1;rounded=0;exitX=1;exitY=0.3333333333333333;exitDx=0;exitDy=0;exitPerimeter=0;entryX=0;entryY=0.5;entryDx=0;entryDy=0;" parent="1" source="y_27c51pW98yB0ZTRsNP-3" target="y_27c51pW98yB0ZTRsNP-11" edge="1">
          <mxGeometry width="50" height="50" relative="1" as="geometry">
            <mxPoint x="520" y="490" as="sourcePoint" />
            <mxPoint x="570" y="440" as="targetPoint" />
          </mxGeometry>
        </mxCell>
        <mxCell id="y_27c51pW98yB0ZTRsNP-15" value="Remove/ Ban posts and users" style="ellipse;whiteSpace=wrap;html=1;" parent="1" vertex="1">
          <mxGeometry x="463" y="430" width="140" height="70" as="geometry" />
        </mxCell>
        <mxCell id="y_27c51pW98yB0ZTRsNP-17" value="Management&lt;br&gt;System" style="ellipse;whiteSpace=wrap;html=1;" parent="1" vertex="1">
          <mxGeometry x="230" y="380" width="140" height="70" as="geometry" />
        </mxCell>
        <mxCell id="y_27c51pW98yB0ZTRsNP-18" value="Monitor Community Guidelines" style="ellipse;whiteSpace=wrap;html=1;" parent="1" vertex="1">
          <mxGeometry x="463" y="700" width="140" height="70" as="geometry" />
        </mxCell>
        <mxCell id="y_27c51pW98yB0ZTRsNP-19" value="" style="endArrow=none;html=1;rounded=0;entryX=1;entryY=0.5;entryDx=0;entryDy=0;" parent="1" edge="1" target="y_27c51pW98yB0ZTRsNP-15">
          <mxGeometry width="50" height="50" relative="1" as="geometry">
            <mxPoint x="770" y="430" as="sourcePoint" />
            <mxPoint x="570" y="440" as="targetPoint" />
          </mxGeometry>
        </mxCell>
        <mxCell id="y_27c51pW98yB0ZTRsNP-25" value="" style="endArrow=none;html=1;rounded=0;entryX=1;entryY=0.3333333333333333;entryDx=0;entryDy=0;entryPerimeter=0;exitX=0;exitY=0.4;exitDx=0;exitDy=0;exitPerimeter=0;" parent="1" source="y_27c51pW98yB0ZTRsNP-10" target="y_27c51pW98yB0ZTRsNP-3" edge="1">
          <mxGeometry width="50" height="50" relative="1" as="geometry">
            <mxPoint x="520" y="490" as="sourcePoint" />
            <mxPoint x="570" y="440" as="targetPoint" />
          </mxGeometry>
        </mxCell>
        <mxCell id="y_27c51pW98yB0ZTRsNP-28" value="&amp;lt;&amp;lt;include&amp;gt;&amp;gt;" style="endArrow=open;endSize=12;dashed=1;html=1;rounded=0;entryX=1;entryY=0.5;entryDx=0;entryDy=0;" parent="1" source="y_27c51pW98yB0ZTRsNP-9" target="y_27c51pW98yB0ZTRsNP-17" edge="1">
          <mxGeometry width="160" relative="1" as="geometry">
            <mxPoint x="520" y="690" as="sourcePoint" />
            <mxPoint x="526" y="740" as="targetPoint" />
          </mxGeometry>
        </mxCell>
        <mxCell id="y_27c51pW98yB0ZTRsNP-30" value="Conformation email" style="ellipse;whiteSpace=wrap;html=1;" parent="1" vertex="1">
          <mxGeometry x="470" y="520" width="140" height="70" as="geometry" />
        </mxCell>
        <mxCell id="y_27c51pW98yB0ZTRsNP-31" value="" style="endArrow=open;endSize=12;dashed=1;html=1;rounded=0;exitX=1;exitY=0.5;exitDx=0;exitDy=0;" parent="1" source="y_27c51pW98yB0ZTRsNP-10" target="y_27c51pW98yB0ZTRsNP-30" edge="1">
          <mxGeometry width="160" relative="1" as="geometry">
            <mxPoint x="360" y="510" as="sourcePoint" />
            <mxPoint x="640" y="350" as="targetPoint" />
          </mxGeometry>
        </mxCell>
        <mxCell id="y_27c51pW98yB0ZTRsNP-32" value="" style="endArrow=none;html=1;rounded=0;exitX=0;exitY=0.3333333333333333;exitDx=0;exitDy=0;exitPerimeter=0;entryX=1;entryY=0;entryDx=0;entryDy=0;" parent="1" source="y_27c51pW98yB0ZTRsNP-4" target="y_27c51pW98yB0ZTRsNP-18" edge="1">
          <mxGeometry width="50" height="50" relative="1" as="geometry">
            <mxPoint x="610" y="280" as="sourcePoint" />
            <mxPoint x="700" y="640" as="targetPoint" />
            <Array as="points" />
          </mxGeometry>
        </mxCell>
        <mxCell id="GXdgysg-PMK4DLebWIqj-1" value="Send Messages" style="ellipse;whiteSpace=wrap;html=1;" parent="1" vertex="1">
          <mxGeometry x="240" y="300" width="140" height="70" as="geometry" />
        </mxCell>
        <mxCell id="GXdgysg-PMK4DLebWIqj-2" value="" style="endArrow=none;html=1;rounded=0;exitX=1;exitY=0.3333333333333333;exitDx=0;exitDy=0;exitPerimeter=0;entryX=0;entryY=0.5;entryDx=0;entryDy=0;" parent="1" source="y_27c51pW98yB0ZTRsNP-3" target="GXdgysg-PMK4DLebWIqj-1" edge="1">
          <mxGeometry width="50" height="50" relative="1" as="geometry">
            <mxPoint x="100" y="450" as="sourcePoint" />
            <mxPoint x="290" y="340" as="targetPoint" />
          </mxGeometry>
        </mxCell>
        <mxCell id="GXdgysg-PMK4DLebWIqj-3" value="Add Friends" style="ellipse;whiteSpace=wrap;html=1;" parent="1" vertex="1">
          <mxGeometry x="230" y="460" width="140" height="70" as="geometry" />
        </mxCell>
        <mxCell id="GXdgysg-PMK4DLebWIqj-4" value="" style="endArrow=none;html=1;rounded=0;exitX=1;exitY=0.3333333333333333;exitDx=0;exitDy=0;exitPerimeter=0;" parent="1" source="y_27c51pW98yB0ZTRsNP-3" target="GXdgysg-PMK4DLebWIqj-3" edge="1">
          <mxGeometry width="50" height="50" relative="1" as="geometry">
            <mxPoint x="360" y="509" as="sourcePoint" />
            <mxPoint x="810" y="540" as="targetPoint" />
          </mxGeometry>
        </mxCell>
        <mxCell id="GXdgysg-PMK4DLebWIqj-5" value="Share photos/ videos" style="ellipse;whiteSpace=wrap;html=1;" parent="1" vertex="1">
          <mxGeometry x="240" y="690" width="140" height="70" as="geometry" />
        </mxCell>
        <mxCell id="GXdgysg-PMK4DLebWIqj-6" value="" style="endArrow=none;html=1;rounded=0;exitX=1;exitY=0.3333333333333333;exitDx=0;exitDy=0;exitPerimeter=0;entryX=0;entryY=0.5;entryDx=0;entryDy=0;" parent="1" source="y_27c51pW98yB0ZTRsNP-3" target="GXdgysg-PMK4DLebWIqj-5" edge="1">
          <mxGeometry width="50" height="50" relative="1" as="geometry">
            <mxPoint x="160" y="949" as="sourcePoint" />
            <mxPoint x="610" y="980" as="targetPoint" />
          </mxGeometry>
        </mxCell>
        <mxCell id="GXdgysg-PMK4DLebWIqj-10" value="&amp;lt;&amp;lt;include&amp;gt;&amp;gt;" style="endArrow=open;endSize=12;dashed=1;html=1;rounded=0;exitX=0;exitY=0.386;exitDx=0;exitDy=0;exitPerimeter=0;entryX=1;entryY=1;entryDx=0;entryDy=0;" parent="1" source="y_27c51pW98yB0ZTRsNP-18" target="y_27c51pW98yB0ZTRsNP-10" edge="1">
          <mxGeometry width="160" relative="1" as="geometry">
            <mxPoint x="430" y="624" as="sourcePoint" />
            <mxPoint x="538" y="590" as="targetPoint" />
          </mxGeometry>
        </mxCell>
      </root>
    </mxGraphModel>
  </diagram>
  <diagram id="08QPdHWjEiT4ZNn9F5vG" name="Activity Diagram">
    <mxGraphModel dx="864" dy="474" grid="1" gridSize="10" guides="1" tooltips="1" connect="1" arrows="1" fold="1" page="1" pageScale="1" pageWidth="827" pageHeight="1169" math="0" shadow="0">
      <root>
        <mxCell id="0" />
        <mxCell id="1" parent="0" />
        <mxCell id="CTox0oBb_gnx4Vs8BCml-51" value="Social Media- Activity Diagram" style="swimlane;html=1;childLayout=stackLayout;startSize=20;rounded=0;shadow=0;comic=0;labelBackgroundColor=none;strokeWidth=1;fontFamily=Verdana;fontSize=12;align=center;fillStyle=auto;fillColor=#b1ddf0;strokeColor=#10739e;labelBorderColor=none;textShadow=1;" parent="1" vertex="1">
          <mxGeometry x="50" y="60" width="750" height="590" as="geometry" />
        </mxCell>
        <mxCell id="CTox0oBb_gnx4Vs8BCml-52" value="User" style="swimlane;html=1;startSize=20;fillColor=#fff2cc;strokeColor=#d6b656;gradientColor=#ffd966;" parent="CTox0oBb_gnx4Vs8BCml-51" vertex="1">
          <mxGeometry y="20" width="190" height="570" as="geometry">
            <mxRectangle y="20" width="40" height="970" as="alternateBounds" />
          </mxGeometry>
        </mxCell>
        <mxCell id="CTox0oBb_gnx4Vs8BCml-55" value="Create Post" style="rounded=1;whiteSpace=wrap;html=1;arcSize=40;fillColor=#dae8fc;strokeColor=#6c8ebf;" parent="CTox0oBb_gnx4Vs8BCml-52" vertex="1">
          <mxGeometry x="50" y="110" width="120" height="40" as="geometry" />
        </mxCell>
        <mxCell id="CTox0oBb_gnx4Vs8BCml-120" style="edgeStyle=orthogonalEdgeStyle;rounded=0;orthogonalLoop=1;jettySize=auto;html=1;" parent="CTox0oBb_gnx4Vs8BCml-52" source="CTox0oBb_gnx4Vs8BCml-119" target="CTox0oBb_gnx4Vs8BCml-55" edge="1">
          <mxGeometry relative="1" as="geometry">
            <Array as="points">
              <mxPoint x="102" y="170" />
              <mxPoint x="102" y="170" />
            </Array>
          </mxGeometry>
        </mxCell>
        <mxCell id="CTox0oBb_gnx4Vs8BCml-121" value="No" style="edgeLabel;html=1;align=center;verticalAlign=middle;resizable=0;points=[];" parent="CTox0oBb_gnx4Vs8BCml-120" vertex="1" connectable="0">
          <mxGeometry x="-0.8028" y="-1" relative="1" as="geometry">
            <mxPoint as="offset" />
          </mxGeometry>
        </mxCell>
        <mxCell id="CTox0oBb_gnx4Vs8BCml-119" value="satisfied" style="html=1;whiteSpace=wrap;aspect=fixed;shape=isoRectangle;fillColor=#dae8fc;strokeColor=#6c8ebf;" parent="CTox0oBb_gnx4Vs8BCml-52" vertex="1">
          <mxGeometry x="60" y="215" width="83.33" height="50" as="geometry" />
        </mxCell>
        <mxCell id="CTox0oBb_gnx4Vs8BCml-137" style="edgeStyle=orthogonalEdgeStyle;rounded=0;orthogonalLoop=1;jettySize=auto;html=1;exitX=0;exitY=0.5;exitDx=0;exitDy=0;entryX=0;entryY=0.75;entryDx=0;entryDy=0;" parent="CTox0oBb_gnx4Vs8BCml-52" source="CTox0oBb_gnx4Vs8BCml-135" target="CTox0oBb_gnx4Vs8BCml-55" edge="1">
          <mxGeometry relative="1" as="geometry">
            <Array as="points">
              <mxPoint x="20" y="410" />
              <mxPoint x="20" y="140" />
            </Array>
          </mxGeometry>
        </mxCell>
        <mxCell id="CTox0oBb_gnx4Vs8BCml-135" value="Notify User" style="rounded=1;whiteSpace=wrap;html=1;arcSize=40;fillColor=#dae8fc;strokeColor=#6c8ebf;" parent="CTox0oBb_gnx4Vs8BCml-52" vertex="1">
          <mxGeometry x="35" y="390" width="120" height="40" as="geometry" />
        </mxCell>
        <mxCell id="1lJs5YXV7P3twMtxd0Vz-1" value="" style="ellipse;html=1;shape=startState;fillColor=#000000;strokeColor=#ff0000;" vertex="1" parent="CTox0oBb_gnx4Vs8BCml-52">
          <mxGeometry x="86.66" y="40" width="30" height="30" as="geometry" />
        </mxCell>
        <mxCell id="1lJs5YXV7P3twMtxd0Vz-2" value="" style="edgeStyle=orthogonalEdgeStyle;html=1;verticalAlign=bottom;endArrow=open;endSize=8;strokeColor=#ff0000;rounded=0;entryX=0.433;entryY=0.025;entryDx=0;entryDy=0;entryPerimeter=0;fontColor=#000000;" edge="1" source="1lJs5YXV7P3twMtxd0Vz-1" parent="CTox0oBb_gnx4Vs8BCml-52" target="CTox0oBb_gnx4Vs8BCml-55">
          <mxGeometry relative="1" as="geometry">
            <mxPoint x="102" y="90" as="targetPoint" />
          </mxGeometry>
        </mxCell>
        <mxCell id="CTox0oBb_gnx4Vs8BCml-67" value="Upload" style="swimlane;html=1;startSize=20;fillColor=#fff2cc;strokeColor=#d6b656;gradientColor=#ffd966;" parent="CTox0oBb_gnx4Vs8BCml-51" vertex="1">
          <mxGeometry x="190" y="20" width="180" height="570" as="geometry" />
        </mxCell>
        <mxCell id="CTox0oBb_gnx4Vs8BCml-116" value="" style="edgeStyle=orthogonalEdgeStyle;rounded=0;orthogonalLoop=1;jettySize=auto;html=1;endArrow=open;endFill=0;" parent="CTox0oBb_gnx4Vs8BCml-67" source="CTox0oBb_gnx4Vs8BCml-113" target="CTox0oBb_gnx4Vs8BCml-115" edge="1">
          <mxGeometry relative="1" as="geometry" />
        </mxCell>
        <mxCell id="CTox0oBb_gnx4Vs8BCml-113" value="Select Photos/Videos" style="whiteSpace=wrap;html=1;fillColor=#dae8fc;strokeColor=#6c8ebf;rounded=1;arcSize=40;" parent="CTox0oBb_gnx4Vs8BCml-67" vertex="1">
          <mxGeometry x="30" y="110" width="120" height="40" as="geometry" />
        </mxCell>
        <mxCell id="CTox0oBb_gnx4Vs8BCml-115" value="Adds Caption/tags etc" style="whiteSpace=wrap;html=1;fillColor=#dae8fc;strokeColor=#6c8ebf;rounded=1;arcSize=40;" parent="CTox0oBb_gnx4Vs8BCml-67" vertex="1">
          <mxGeometry x="30" y="220" width="120" height="40" as="geometry" />
        </mxCell>
        <mxCell id="CTox0oBb_gnx4Vs8BCml-123" value="Publish" style="whiteSpace=wrap;html=1;fillColor=#dae8fc;strokeColor=#6c8ebf;rounded=1;arcSize=40;" parent="CTox0oBb_gnx4Vs8BCml-67" vertex="1">
          <mxGeometry x="30" y="320" width="120" height="40" as="geometry" />
        </mxCell>
        <mxCell id="CTox0oBb_gnx4Vs8BCml-133" value="Revoke Publish" style="rounded=1;whiteSpace=wrap;html=1;arcSize=40;fillColor=#dae8fc;strokeColor=#6c8ebf;" parent="CTox0oBb_gnx4Vs8BCml-67" vertex="1">
          <mxGeometry x="30" y="390" width="120" height="40" as="geometry" />
        </mxCell>
        <mxCell id="CTox0oBb_gnx4Vs8BCml-83" value="DataBase" style="swimlane;html=1;startSize=20;fillColor=#fff2cc;strokeColor=#d6b656;gradientColor=#ffd966;" parent="CTox0oBb_gnx4Vs8BCml-51" vertex="1">
          <mxGeometry x="370" y="20" width="170" height="570" as="geometry" />
        </mxCell>
        <mxCell id="CTox0oBb_gnx4Vs8BCml-89" value="Store in DataBase" style="rounded=1;whiteSpace=wrap;html=1;arcSize=40;fillColor=#dae8fc;strokeColor=#6c8ebf;" parent="CTox0oBb_gnx4Vs8BCml-83" vertex="1">
          <mxGeometry x="29.999999999999993" y="270" width="120" height="40" as="geometry" />
        </mxCell>
        <mxCell id="CTox0oBb_gnx4Vs8BCml-130" value="Delete Media" style="rounded=1;whiteSpace=wrap;html=1;arcSize=40;fillColor=#dae8fc;strokeColor=#6c8ebf;" parent="CTox0oBb_gnx4Vs8BCml-83" vertex="1">
          <mxGeometry x="30" y="390" width="120" height="40" as="geometry" />
        </mxCell>
        <mxCell id="CTox0oBb_gnx4Vs8BCml-101" value="Moderation" style="swimlane;html=1;startSize=20;fillColor=#fff2cc;strokeColor=#d6b656;gradientColor=#ffd966;" parent="CTox0oBb_gnx4Vs8BCml-51" vertex="1">
          <mxGeometry x="540" y="20" width="210" height="570" as="geometry" />
        </mxCell>
        <mxCell id="CTox0oBb_gnx4Vs8BCml-102" value="Moderate the uploaded media&amp;nbsp;&amp;nbsp;" style="rounded=1;whiteSpace=wrap;html=1;arcSize=40;fillColor=#dae8fc;strokeColor=#6c8ebf;" parent="CTox0oBb_gnx4Vs8BCml-101" vertex="1">
          <mxGeometry x="80" y="190" width="120" height="40" as="geometry" />
        </mxCell>
        <mxCell id="CTox0oBb_gnx4Vs8BCml-103" value="" style="edgeStyle=orthogonalEdgeStyle;html=1;verticalAlign=bottom;endArrow=open;endSize=8;strokeColor=#6c8ebf;rounded=0;fillColor=#dae8fc;" parent="CTox0oBb_gnx4Vs8BCml-101" source="CTox0oBb_gnx4Vs8BCml-102" target="CTox0oBb_gnx4Vs8BCml-104" edge="1">
          <mxGeometry relative="1" as="geometry">
            <mxPoint x="140" y="290" as="targetPoint" />
          </mxGeometry>
        </mxCell>
        <mxCell id="CTox0oBb_gnx4Vs8BCml-127" style="edgeStyle=orthogonalEdgeStyle;rounded=0;orthogonalLoop=1;jettySize=auto;html=1;entryX=0.5;entryY=0;entryDx=0;entryDy=0;" parent="CTox0oBb_gnx4Vs8BCml-101" source="CTox0oBb_gnx4Vs8BCml-104" target="CTox0oBb_gnx4Vs8BCml-107" edge="1">
          <mxGeometry relative="1" as="geometry" />
        </mxCell>
        <mxCell id="CTox0oBb_gnx4Vs8BCml-128" value="Yes" style="edgeLabel;html=1;align=center;verticalAlign=middle;resizable=0;points=[];" parent="CTox0oBb_gnx4Vs8BCml-127" vertex="1" connectable="0">
          <mxGeometry x="0.0876" y="-1" relative="1" as="geometry">
            <mxPoint as="offset" />
          </mxGeometry>
        </mxCell>
        <mxCell id="CTox0oBb_gnx4Vs8BCml-104" value="Appropriate" style="html=1;whiteSpace=wrap;aspect=fixed;shape=isoRectangle;fillColor=#dae8fc;strokeColor=#6c8ebf;" parent="CTox0oBb_gnx4Vs8BCml-101" vertex="1">
          <mxGeometry x="98.33" y="280" width="83.33" height="50" as="geometry" />
        </mxCell>
        <mxCell id="CTox0oBb_gnx4Vs8BCml-107" value="Allow Publish" style="rounded=1;whiteSpace=wrap;html=1;arcSize=40;fillColor=#dae8fc;strokeColor=#6c8ebf;" parent="CTox0oBb_gnx4Vs8BCml-101" vertex="1">
          <mxGeometry x="79.99" y="360" width="120" height="40" as="geometry" />
        </mxCell>
        <mxCell id="CTox0oBb_gnx4Vs8BCml-108" value="" style="edgeStyle=orthogonalEdgeStyle;html=1;verticalAlign=bottom;endArrow=open;endSize=8;strokeColor=#6c8ebf;rounded=0;fillColor=#dae8fc;" parent="CTox0oBb_gnx4Vs8BCml-101" source="CTox0oBb_gnx4Vs8BCml-107" target="CTox0oBb_gnx4Vs8BCml-64" edge="1">
          <mxGeometry relative="1" as="geometry">
            <mxPoint x="139.92592592592587" y="440" as="targetPoint" />
          </mxGeometry>
        </mxCell>
        <mxCell id="CTox0oBb_gnx4Vs8BCml-64" value="" style="ellipse;html=1;shape=endState;fillColor=light-dark(#111212, #1d293b);strokeColor=#6c8ebf;" parent="CTox0oBb_gnx4Vs8BCml-101" vertex="1">
          <mxGeometry x="55" y="475" width="30" height="30" as="geometry" />
        </mxCell>
        <mxCell id="CTox0oBb_gnx4Vs8BCml-65" value="End" style="text;align=center;fontStyle=1;verticalAlign=middle;spacingLeft=3;spacingRight=3;strokeColor=#6c8ebf;rotatable=0;points=[[0,0.5],[1,0.5]];portConstraint=eastwest;html=1;fillColor=#dae8fc;" parent="CTox0oBb_gnx4Vs8BCml-101" vertex="1">
          <mxGeometry x="120" y="479" width="80" height="26" as="geometry" />
        </mxCell>
        <mxCell id="CTox0oBb_gnx4Vs8BCml-66" value="" style="endArrow=open;endFill=1;endSize=12;html=1;rounded=0;entryX=1;entryY=0.5;entryDx=0;entryDy=0;strokeColor=#6c8ebf;fillColor=#dae8fc;" parent="CTox0oBb_gnx4Vs8BCml-101" source="CTox0oBb_gnx4Vs8BCml-65" target="CTox0oBb_gnx4Vs8BCml-64" edge="1">
          <mxGeometry width="160" relative="1" as="geometry">
            <mxPoint x="240" y="405" as="sourcePoint" />
            <mxPoint x="400" y="405" as="targetPoint" />
          </mxGeometry>
        </mxCell>
        <mxCell id="CTox0oBb_gnx4Vs8BCml-114" value="" style="edgeStyle=orthogonalEdgeStyle;rounded=0;orthogonalLoop=1;jettySize=auto;html=1;endArrow=open;endFill=0;" parent="CTox0oBb_gnx4Vs8BCml-51" source="CTox0oBb_gnx4Vs8BCml-55" target="CTox0oBb_gnx4Vs8BCml-113" edge="1">
          <mxGeometry relative="1" as="geometry" />
        </mxCell>
        <mxCell id="CTox0oBb_gnx4Vs8BCml-117" value="" style="edgeStyle=orthogonalEdgeStyle;rounded=0;orthogonalLoop=1;jettySize=auto;html=1;endArrow=open;endFill=0;exitX=0;exitY=0.5;exitDx=0;exitDy=0;entryX=0.966;entryY=0.511;entryDx=0;entryDy=0;entryPerimeter=0;" parent="CTox0oBb_gnx4Vs8BCml-51" source="CTox0oBb_gnx4Vs8BCml-115" target="CTox0oBb_gnx4Vs8BCml-119" edge="1">
          <mxGeometry relative="1" as="geometry">
            <mxPoint x="140" y="230" as="sourcePoint" />
            <mxPoint x="140" y="260" as="targetPoint" />
          </mxGeometry>
        </mxCell>
        <mxCell id="CTox0oBb_gnx4Vs8BCml-122" style="edgeStyle=orthogonalEdgeStyle;rounded=0;orthogonalLoop=1;jettySize=auto;html=1;" parent="CTox0oBb_gnx4Vs8BCml-51" source="CTox0oBb_gnx4Vs8BCml-119" target="CTox0oBb_gnx4Vs8BCml-123" edge="1">
          <mxGeometry relative="1" as="geometry">
            <mxPoint x="240" y="360" as="targetPoint" />
            <Array as="points">
              <mxPoint x="102" y="360" />
            </Array>
          </mxGeometry>
        </mxCell>
        <mxCell id="CTox0oBb_gnx4Vs8BCml-125" value="" style="edgeStyle=orthogonalEdgeStyle;rounded=0;orthogonalLoop=1;jettySize=auto;html=1;" parent="CTox0oBb_gnx4Vs8BCml-51" source="CTox0oBb_gnx4Vs8BCml-123" target="CTox0oBb_gnx4Vs8BCml-89" edge="1">
          <mxGeometry relative="1" as="geometry" />
        </mxCell>
        <mxCell id="CTox0oBb_gnx4Vs8BCml-126" style="edgeStyle=orthogonalEdgeStyle;rounded=0;orthogonalLoop=1;jettySize=auto;html=1;entryX=0;entryY=0.5;entryDx=0;entryDy=0;exitX=0.5;exitY=0;exitDx=0;exitDy=0;" parent="CTox0oBb_gnx4Vs8BCml-51" source="CTox0oBb_gnx4Vs8BCml-89" target="CTox0oBb_gnx4Vs8BCml-102" edge="1">
          <mxGeometry relative="1" as="geometry" />
        </mxCell>
        <mxCell id="CTox0oBb_gnx4Vs8BCml-131" style="edgeStyle=orthogonalEdgeStyle;rounded=0;orthogonalLoop=1;jettySize=auto;html=1;entryX=1;entryY=0.5;entryDx=0;entryDy=0;" parent="CTox0oBb_gnx4Vs8BCml-51" source="CTox0oBb_gnx4Vs8BCml-104" target="CTox0oBb_gnx4Vs8BCml-130" edge="1">
          <mxGeometry relative="1" as="geometry" />
        </mxCell>
        <mxCell id="CTox0oBb_gnx4Vs8BCml-132" value="No" style="edgeLabel;html=1;align=center;verticalAlign=middle;resizable=0;points=[];" parent="CTox0oBb_gnx4Vs8BCml-131" vertex="1" connectable="0">
          <mxGeometry x="-0.7382" y="1" relative="1" as="geometry">
            <mxPoint as="offset" />
          </mxGeometry>
        </mxCell>
        <mxCell id="CTox0oBb_gnx4Vs8BCml-134" value="" style="edgeStyle=orthogonalEdgeStyle;rounded=0;orthogonalLoop=1;jettySize=auto;html=1;" parent="CTox0oBb_gnx4Vs8BCml-51" source="CTox0oBb_gnx4Vs8BCml-130" target="CTox0oBb_gnx4Vs8BCml-133" edge="1">
          <mxGeometry relative="1" as="geometry" />
        </mxCell>
        <mxCell id="CTox0oBb_gnx4Vs8BCml-136" value="" style="edgeStyle=orthogonalEdgeStyle;rounded=0;orthogonalLoop=1;jettySize=auto;html=1;" parent="CTox0oBb_gnx4Vs8BCml-51" source="CTox0oBb_gnx4Vs8BCml-133" target="CTox0oBb_gnx4Vs8BCml-135" edge="1">
          <mxGeometry relative="1" as="geometry" />
        </mxCell>
      </root>
    </mxGraphModel>
  </diagram>
  <diagram id="-JlMOxnUVT8BfBrDlM0p" name="State Machine Diagram">
    <mxGraphModel dx="864" dy="474" grid="1" gridSize="10" guides="1" tooltips="1" connect="1" arrows="1" fold="1" page="1" pageScale="1" pageWidth="1100" pageHeight="850" math="0" shadow="0">
      <root>
        <mxCell id="0" />
        <mxCell id="1" parent="0" />
        <mxCell id="E0EMf9ibkUT7xpvl6s8r-1" value="" style="ellipse;html=1;shape=startState;fillColor=#000000;strokeColor=#ff0000;rounded=1;shadow=0;comic=0;labelBackgroundColor=none;fontFamily=Verdana;fontSize=12;fontColor=#000000;align=center;direction=south;" vertex="1" parent="1">
          <mxGeometry x="145" y="165" width="30" height="30" as="geometry" />
        </mxCell>
        <mxCell id="E0EMf9ibkUT7xpvl6s8r-2" value="Login/ Create Account" style="rounded=1;whiteSpace=wrap;html=1;arcSize=24;fillColor=#ffffc0;strokeColor=#ff0000;shadow=0;comic=0;labelBackgroundColor=none;fontFamily=Verdana;fontSize=12;fontColor=#000000;align=center;" vertex="1" parent="1">
          <mxGeometry x="255" y="150" width="120" height="60" as="geometry" />
        </mxCell>
        <mxCell id="E0EMf9ibkUT7xpvl6s8r-3" style="edgeStyle=orthogonalEdgeStyle;html=1;labelBackgroundColor=none;endArrow=open;endSize=8;strokeColor=#ff0000;fontFamily=Verdana;fontSize=12;align=left;exitX=1;exitY=0.5;exitDx=0;exitDy=0;" edge="1" parent="1" source="E0EMf9ibkUT7xpvl6s8r-2" target="E0EMf9ibkUT7xpvl6s8r-4">
          <mxGeometry relative="1" as="geometry">
            <Array as="points">
              <mxPoint x="585" y="180" />
            </Array>
            <mxPoint x="825" y="310" as="sourcePoint" />
          </mxGeometry>
        </mxCell>
        <mxCell id="E0EMf9ibkUT7xpvl6s8r-4" value="Container" style="swimlane;whiteSpace=wrap;html=1;rounded=1;shadow=0;comic=0;labelBackgroundColor=none;strokeWidth=1;fontFamily=Verdana;fontSize=12;align=center;" vertex="1" parent="1">
          <mxGeometry x="125" y="270" width="930" height="340" as="geometry">
            <mxRectangle x="120" y="225" width="100" height="30" as="alternateBounds" />
          </mxGeometry>
        </mxCell>
        <mxCell id="E0EMf9ibkUT7xpvl6s8r-5" style="edgeStyle=elbowEdgeStyle;html=1;labelBackgroundColor=none;endArrow=open;endSize=8;strokeColor=#ff0000;fontFamily=Verdana;fontSize=12;align=left;entryX=0.5;entryY=0;entryDx=0;entryDy=0;" edge="1" parent="E0EMf9ibkUT7xpvl6s8r-4" source="E0EMf9ibkUT7xpvl6s8r-12" target="E0EMf9ibkUT7xpvl6s8r-9">
          <mxGeometry relative="1" as="geometry">
            <mxPoint x="100" y="245" as="targetPoint" />
          </mxGeometry>
        </mxCell>
        <mxCell id="E0EMf9ibkUT7xpvl6s8r-6" value="&lt;span style=&quot;font-family: Helvetica; font-weight: 700; text-wrap-mode: nowrap;&quot;&gt;Verify credentials&amp;nbsp;&lt;/span&gt;" style="rounded=1;whiteSpace=wrap;html=1;arcSize=24;fillColor=#ffffc0;strokeColor=#ff0000;shadow=0;comic=0;labelBackgroundColor=none;fontFamily=Verdana;fontSize=12;fontColor=#000000;align=center;" vertex="1" parent="E0EMf9ibkUT7xpvl6s8r-4">
          <mxGeometry x="220" y="95" width="120" height="60" as="geometry" />
        </mxCell>
        <mxCell id="E0EMf9ibkUT7xpvl6s8r-7" style="edgeStyle=elbowEdgeStyle;html=1;labelBackgroundColor=none;endArrow=open;endSize=8;strokeColor=#ff0000;fontFamily=Verdana;fontSize=12;align=left;" edge="1" parent="E0EMf9ibkUT7xpvl6s8r-4" source="E0EMf9ibkUT7xpvl6s8r-8" target="E0EMf9ibkUT7xpvl6s8r-6">
          <mxGeometry relative="1" as="geometry" />
        </mxCell>
        <mxCell id="E0EMf9ibkUT7xpvl6s8r-8" value="" style="ellipse;html=1;shape=startState;fillColor=#000000;strokeColor=#ff0000;rounded=1;shadow=0;comic=0;labelBackgroundColor=none;fontFamily=Verdana;fontSize=12;fontColor=#000000;align=center;direction=south;" vertex="1" parent="E0EMf9ibkUT7xpvl6s8r-4">
          <mxGeometry x="110" y="110" width="30" height="30" as="geometry" />
        </mxCell>
        <mxCell id="E0EMf9ibkUT7xpvl6s8r-9" value="Login" style="rounded=1;whiteSpace=wrap;html=1;arcSize=24;fillColor=#ffffc0;strokeColor=#ff0000;shadow=0;comic=0;labelBackgroundColor=none;fontFamily=Verdana;fontSize=12;fontColor=#000000;align=center;" vertex="1" parent="E0EMf9ibkUT7xpvl6s8r-4">
          <mxGeometry x="220" y="256" width="120" height="60" as="geometry" />
        </mxCell>
        <mxCell id="E0EMf9ibkUT7xpvl6s8r-10" value="&lt;span class=&quot;selected&quot;&gt;Login&lt;/span&gt;" style="text;align=center;fontStyle=1;verticalAlign=middle;spacingLeft=3;spacingRight=3;strokeColor=#82b366;rotatable=0;points=[[0,0.5],[1,0.5]];portConstraint=eastwest;html=1;fillColor=#d5e8d4;" vertex="1" parent="E0EMf9ibkUT7xpvl6s8r-4">
          <mxGeometry x="230" y="30" width="90" height="26" as="geometry" />
        </mxCell>
        <mxCell id="E0EMf9ibkUT7xpvl6s8r-11" value="Create Account" style="text;align=center;fontStyle=1;verticalAlign=middle;spacingLeft=3;spacingRight=3;strokeColor=#82b366;rotatable=0;points=[[0,0.5],[1,0.5]];portConstraint=eastwest;html=1;fillColor=#d5e8d4;" vertex="1" parent="E0EMf9ibkUT7xpvl6s8r-4">
          <mxGeometry x="650" y="40" width="100" height="26" as="geometry" />
        </mxCell>
        <mxCell id="E0EMf9ibkUT7xpvl6s8r-12" value="Validate from database" style="text;align=center;fontStyle=1;verticalAlign=middle;spacingLeft=3;spacingRight=3;strokeColor=none;rotatable=0;points=[[0,0.5],[1,0.5]];portConstraint=eastwest;html=1;" vertex="1" parent="E0EMf9ibkUT7xpvl6s8r-4">
          <mxGeometry x="240" y="187" width="80" height="26" as="geometry" />
        </mxCell>
        <mxCell id="E0EMf9ibkUT7xpvl6s8r-13" value="" style="edgeStyle=elbowEdgeStyle;html=1;labelBackgroundColor=none;endArrow=open;endSize=8;strokeColor=#ff0000;fontFamily=Verdana;fontSize=12;align=left;entryX=0.5;entryY=0;entryDx=0;entryDy=0;" edge="1" parent="E0EMf9ibkUT7xpvl6s8r-4" source="E0EMf9ibkUT7xpvl6s8r-6" target="E0EMf9ibkUT7xpvl6s8r-12">
          <mxGeometry relative="1" as="geometry">
            <mxPoint x="390" y="430" as="sourcePoint" />
            <mxPoint x="390" y="560" as="targetPoint" />
          </mxGeometry>
        </mxCell>
        <mxCell id="E0EMf9ibkUT7xpvl6s8r-14" style="edgeStyle=elbowEdgeStyle;html=1;labelBackgroundColor=none;endArrow=open;endSize=8;strokeColor=#ff0000;fontFamily=Verdana;fontSize=12;align=left;entryX=0.5;entryY=0;entryDx=0;entryDy=0;" edge="1" parent="E0EMf9ibkUT7xpvl6s8r-4" source="E0EMf9ibkUT7xpvl6s8r-20" target="E0EMf9ibkUT7xpvl6s8r-19">
          <mxGeometry relative="1" as="geometry">
            <mxPoint x="570" y="225" as="targetPoint" />
          </mxGeometry>
        </mxCell>
        <mxCell id="E0EMf9ibkUT7xpvl6s8r-15" value="Create Account" style="rounded=1;whiteSpace=wrap;html=1;arcSize=24;fillColor=#ffffc0;strokeColor=#ff0000;shadow=0;comic=0;labelBackgroundColor=none;fontFamily=Verdana;fontSize=12;fontColor=#000000;align=center;" vertex="1" parent="E0EMf9ibkUT7xpvl6s8r-4">
          <mxGeometry x="650" y="110" width="120" height="60" as="geometry" />
        </mxCell>
        <mxCell id="E0EMf9ibkUT7xpvl6s8r-16" style="edgeStyle=elbowEdgeStyle;html=1;labelBackgroundColor=none;endArrow=open;endSize=8;strokeColor=#ff0000;fontFamily=Verdana;fontSize=12;align=left;" edge="1" parent="E0EMf9ibkUT7xpvl6s8r-4" source="E0EMf9ibkUT7xpvl6s8r-17" target="E0EMf9ibkUT7xpvl6s8r-15">
          <mxGeometry relative="1" as="geometry" />
        </mxCell>
        <mxCell id="E0EMf9ibkUT7xpvl6s8r-17" value="" style="ellipse;html=1;shape=startState;fillColor=#000000;strokeColor=#ff0000;rounded=1;shadow=0;comic=0;labelBackgroundColor=none;fontFamily=Verdana;fontSize=12;fontColor=#000000;align=center;direction=south;" vertex="1" parent="E0EMf9ibkUT7xpvl6s8r-4">
          <mxGeometry x="530" y="125" width="30" height="30" as="geometry" />
        </mxCell>
        <mxCell id="E0EMf9ibkUT7xpvl6s8r-18" style="edgeStyle=orthogonalEdgeStyle;rounded=0;orthogonalLoop=1;jettySize=auto;html=1;" edge="1" parent="E0EMf9ibkUT7xpvl6s8r-4" source="E0EMf9ibkUT7xpvl6s8r-19">
          <mxGeometry relative="1" as="geometry">
            <mxPoint x="460" y="180" as="targetPoint" />
            <Array as="points">
              <mxPoint x="510" y="290" />
              <mxPoint x="510" y="180" />
            </Array>
          </mxGeometry>
        </mxCell>
        <mxCell id="E0EMf9ibkUT7xpvl6s8r-19" value="Account Created" style="rounded=1;whiteSpace=wrap;html=1;arcSize=24;fillColor=#ffffc0;strokeColor=#ff0000;shadow=0;comic=0;labelBackgroundColor=none;fontFamily=Verdana;fontSize=12;fontColor=#000000;align=center;" vertex="1" parent="E0EMf9ibkUT7xpvl6s8r-4">
          <mxGeometry x="650" y="260" width="120" height="60" as="geometry" />
        </mxCell>
        <mxCell id="E0EMf9ibkUT7xpvl6s8r-20" value="enter OTP" style="text;align=center;fontStyle=1;verticalAlign=middle;spacingLeft=3;spacingRight=3;strokeColor=none;rotatable=0;points=[[0,0.5],[1,0.5]];portConstraint=eastwest;html=1;" vertex="1" parent="E0EMf9ibkUT7xpvl6s8r-4">
          <mxGeometry x="670" y="200" width="80" height="26" as="geometry" />
        </mxCell>
        <mxCell id="E0EMf9ibkUT7xpvl6s8r-21" value="" style="edgeStyle=elbowEdgeStyle;html=1;labelBackgroundColor=none;endArrow=open;endSize=8;strokeColor=#ff0000;fontFamily=Verdana;fontSize=12;align=left;entryX=0.5;entryY=0;entryDx=0;entryDy=0;" edge="1" parent="E0EMf9ibkUT7xpvl6s8r-4" source="E0EMf9ibkUT7xpvl6s8r-15" target="E0EMf9ibkUT7xpvl6s8r-20">
          <mxGeometry relative="1" as="geometry">
            <mxPoint x="860" y="410" as="sourcePoint" />
            <mxPoint x="860" y="540" as="targetPoint" />
          </mxGeometry>
        </mxCell>
        <mxCell id="E0EMf9ibkUT7xpvl6s8r-22" style="edgeStyle=orthogonalEdgeStyle;html=1;labelBackgroundColor=none;endArrow=open;endSize=8;strokeColor=#ff0000;fontFamily=Verdana;fontSize=12;align=left;" edge="1" parent="1" source="E0EMf9ibkUT7xpvl6s8r-1" target="E0EMf9ibkUT7xpvl6s8r-2">
          <mxGeometry relative="1" as="geometry" />
        </mxCell>
        <mxCell id="E0EMf9ibkUT7xpvl6s8r-23" value="State Diagram - Social Media" style="text;align=center;fontStyle=1;verticalAlign=middle;spacingLeft=3;spacingRight=3;strokeColor=light-dark(#e82d26, #d7817e);rotatable=0;points=[[0,0.5],[1,0.5]];portConstraint=eastwest;html=1;fillColor=#f8cecc;" vertex="1" parent="1">
          <mxGeometry x="340" y="60" width="450" height="26" as="geometry" />
        </mxCell>
        <mxCell id="E0EMf9ibkUT7xpvl6s8r-24" value="" style="endArrow=none;dashed=1;html=1;dashPattern=1 3;strokeWidth=2;rounded=0;" edge="1" parent="1">
          <mxGeometry width="50" height="50" relative="1" as="geometry">
            <mxPoint x="585" y="610" as="sourcePoint" />
            <mxPoint x="585" y="300" as="targetPoint" />
          </mxGeometry>
        </mxCell>
        <mxCell id="E0EMf9ibkUT7xpvl6s8r-25" value="After Login" style="html=1;verticalAlign=bottom;endArrow=block;curved=0;rounded=0;" edge="1" parent="1">
          <mxGeometry width="80" relative="1" as="geometry">
            <mxPoint x="584" y="610" as="sourcePoint" />
            <mxPoint x="584" y="680" as="targetPoint" />
          </mxGeometry>
        </mxCell>
        <mxCell id="E0EMf9ibkUT7xpvl6s8r-26" value="&lt;span class=&quot;selected&quot;&gt;ActiveSession&lt;/span&gt;" style="rounded=1;whiteSpace=wrap;html=1;arcSize=40;fontColor=#000000;fillColor=#ffffc0;strokeColor=#ff0000;" vertex="1" parent="1">
          <mxGeometry x="525" y="680" width="120" height="40" as="geometry" />
        </mxCell>
        <mxCell id="E0EMf9ibkUT7xpvl6s8r-27" value="" style="edgeStyle=orthogonalEdgeStyle;html=1;verticalAlign=bottom;endArrow=open;endSize=8;strokeColor=#ff0000;rounded=0;" edge="1" parent="1" source="E0EMf9ibkUT7xpvl6s8r-26" target="E0EMf9ibkUT7xpvl6s8r-28">
          <mxGeometry relative="1" as="geometry">
            <mxPoint x="585" y="840" as="targetPoint" />
          </mxGeometry>
        </mxCell>
        <mxCell id="E0EMf9ibkUT7xpvl6s8r-28" value="Condition" style="rhombus;whiteSpace=wrap;html=1;fontColor=#000000;fillColor=#ffffc0;strokeColor=#ff0000;" vertex="1" parent="1">
          <mxGeometry x="545" y="780" width="80" height="40" as="geometry" />
        </mxCell>
        <mxCell id="E0EMf9ibkUT7xpvl6s8r-29" value="Otherwise" style="edgeStyle=orthogonalEdgeStyle;html=1;align=left;verticalAlign=bottom;endArrow=open;endSize=8;strokeColor=#ff0000;rounded=0;" edge="1" parent="1" source="E0EMf9ibkUT7xpvl6s8r-28" target="E0EMf9ibkUT7xpvl6s8r-31">
          <mxGeometry x="-1" relative="1" as="geometry">
            <mxPoint x="725" y="1010" as="targetPoint" />
          </mxGeometry>
        </mxCell>
        <mxCell id="E0EMf9ibkUT7xpvl6s8r-30" value="" style="ellipse;html=1;shape=endState;fillColor=#000000;strokeColor=#ff0000;" vertex="1" parent="1">
          <mxGeometry x="585" y="1262" width="30" height="30" as="geometry" />
        </mxCell>
        <mxCell id="E0EMf9ibkUT7xpvl6s8r-31" value="Request account Deletion" style="rounded=1;whiteSpace=wrap;html=1;" vertex="1" parent="1">
          <mxGeometry x="755" y="770" width="120" height="60" as="geometry" />
        </mxCell>
        <mxCell id="E0EMf9ibkUT7xpvl6s8r-32" value="" style="endArrow=classic;html=1;rounded=0;exitX=0.5;exitY=1;exitDx=0;exitDy=0;entryX=1.094;entryY=0.311;entryDx=0;entryDy=0;entryPerimeter=0;" edge="1" parent="1" source="E0EMf9ibkUT7xpvl6s8r-31" target="E0EMf9ibkUT7xpvl6s8r-30">
          <mxGeometry width="50" height="50" relative="1" as="geometry">
            <mxPoint x="425" y="1020" as="sourcePoint" />
            <mxPoint x="585" y="1500" as="targetPoint" />
            <Array as="points">
              <mxPoint x="815" y="1271" />
              <mxPoint x="715" y="1271" />
            </Array>
          </mxGeometry>
        </mxCell>
        <mxCell id="E0EMf9ibkUT7xpvl6s8r-33" value="Enter Otp sent to mail" style="text;align=center;fontStyle=1;verticalAlign=middle;spacingLeft=3;spacingRight=3;strokeColor=none;rotatable=0;points=[[0,0.5],[1,0.5]];portConstraint=eastwest;html=1;" vertex="1" parent="1">
          <mxGeometry x="815" y="1110" width="135" height="26" as="geometry" />
        </mxCell>
        <mxCell id="E0EMf9ibkUT7xpvl6s8r-34" value="" style="endArrow=classic;html=1;rounded=0;exitX=-0.019;exitY=0.504;exitDx=0;exitDy=0;exitPerimeter=0;entryX=0.327;entryY=-0.003;entryDx=0;entryDy=0;entryPerimeter=0;" edge="1" parent="1" source="E0EMf9ibkUT7xpvl6s8r-28" target="E0EMf9ibkUT7xpvl6s8r-36">
          <mxGeometry width="50" height="50" relative="1" as="geometry">
            <mxPoint x="432" y="1010" as="sourcePoint" />
            <mxPoint x="165" y="1050" as="targetPoint" />
            <Array as="points">
              <mxPoint x="252" y="800" />
            </Array>
          </mxGeometry>
        </mxCell>
        <mxCell id="E0EMf9ibkUT7xpvl6s8r-35" value="&lt;span style=&quot;color: rgb(0, 0, 0); font-family: Helvetica; font-size: 11px; font-style: normal; font-variant-ligatures: normal; font-variant-caps: normal; font-weight: 400; letter-spacing: normal; orphans: 2; text-align: center; text-indent: 0px; text-transform: none; widows: 2; word-spacing: 0px; -webkit-text-stroke-width: 0px; white-space: nowrap; background-color: rgb(255, 255, 255); text-decoration-thickness: initial; text-decoration-style: initial; text-decoration-color: initial; float: none; display: inline !important;&quot;&gt;regular activity&lt;/span&gt;" style="text;whiteSpace=wrap;html=1;" vertex="1" parent="1">
          <mxGeometry x="405" y="770" width="100" height="30" as="geometry" />
        </mxCell>
        <mxCell id="E0EMf9ibkUT7xpvl6s8r-36" value="Container" style="swimlane;" vertex="1" parent="1">
          <mxGeometry x="100" y="890" width="465" height="320" as="geometry" />
        </mxCell>
        <mxCell id="E0EMf9ibkUT7xpvl6s8r-37" value="" style="ellipse;html=1;shape=startState;fillColor=#000000;strokeColor=#ff0000;" vertex="1" parent="E0EMf9ibkUT7xpvl6s8r-36">
          <mxGeometry x="25" y="75" width="30" height="30" as="geometry" />
        </mxCell>
        <mxCell id="E0EMf9ibkUT7xpvl6s8r-38" value="" style="edgeStyle=orthogonalEdgeStyle;html=1;verticalAlign=bottom;endArrow=open;endSize=8;strokeColor=#ff0000;rounded=0;exitX=0.551;exitY=0.788;exitDx=0;exitDy=0;exitPerimeter=0;" edge="1" parent="E0EMf9ibkUT7xpvl6s8r-36" source="E0EMf9ibkUT7xpvl6s8r-37" target="E0EMf9ibkUT7xpvl6s8r-39">
          <mxGeometry relative="1" as="geometry">
            <mxPoint x="90" y="129.38" as="targetPoint" />
            <mxPoint x="37.59999999999991" y="95.00000000000011" as="sourcePoint" />
            <Array as="points">
              <mxPoint x="38" y="99" />
              <mxPoint x="38" y="129" />
            </Array>
          </mxGeometry>
        </mxCell>
        <mxCell id="E0EMf9ibkUT7xpvl6s8r-39" value="See Posts/ Videos" style="rounded=1;whiteSpace=wrap;html=1;arcSize=40;fontColor=#000000;fillColor=#ffffc0;strokeColor=#ff0000;" vertex="1" parent="E0EMf9ibkUT7xpvl6s8r-36">
          <mxGeometry x="60" y="124.38" width="120" height="40" as="geometry" />
        </mxCell>
        <mxCell id="E0EMf9ibkUT7xpvl6s8r-40" value="" style="edgeStyle=orthogonalEdgeStyle;html=1;verticalAlign=bottom;endArrow=open;endSize=8;strokeColor=#ff0000;rounded=0;" edge="1" parent="E0EMf9ibkUT7xpvl6s8r-36" source="E0EMf9ibkUT7xpvl6s8r-39" target="E0EMf9ibkUT7xpvl6s8r-41">
          <mxGeometry relative="1" as="geometry">
            <mxPoint x="130" y="209.38" as="targetPoint" />
          </mxGeometry>
        </mxCell>
        <mxCell id="E0EMf9ibkUT7xpvl6s8r-41" value="Like/ comment/ share" style="rounded=1;whiteSpace=wrap;html=1;arcSize=40;fontColor=#000000;fillColor=#ffffc0;strokeColor=#ff0000;" vertex="1" parent="E0EMf9ibkUT7xpvl6s8r-36">
          <mxGeometry x="60" y="230" width="120" height="40" as="geometry" />
        </mxCell>
        <mxCell id="E0EMf9ibkUT7xpvl6s8r-42" value="ViewingPost" style="text;align=center;fontStyle=1;verticalAlign=middle;spacingLeft=3;spacingRight=3;strokeColor=#82b366;rotatable=0;points=[[0,0.5],[1,0.5]];portConstraint=eastwest;html=1;fillColor=#d5e8d4;" vertex="1" parent="E0EMf9ibkUT7xpvl6s8r-36">
          <mxGeometry x="45" y="35" width="135" height="26" as="geometry" />
        </mxCell>
        <mxCell id="E0EMf9ibkUT7xpvl6s8r-43" value="" style="ellipse;html=1;shape=startState;fillColor=#000000;strokeColor=#ff0000;" vertex="1" parent="E0EMf9ibkUT7xpvl6s8r-36">
          <mxGeometry x="265" y="75" width="30" height="30" as="geometry" />
        </mxCell>
        <mxCell id="E0EMf9ibkUT7xpvl6s8r-44" value="" style="edgeStyle=orthogonalEdgeStyle;html=1;verticalAlign=bottom;endArrow=open;endSize=8;strokeColor=#ff0000;rounded=0;exitX=0.551;exitY=0.788;exitDx=0;exitDy=0;exitPerimeter=0;" edge="1" parent="E0EMf9ibkUT7xpvl6s8r-36" source="E0EMf9ibkUT7xpvl6s8r-43" target="E0EMf9ibkUT7xpvl6s8r-45">
          <mxGeometry relative="1" as="geometry">
            <mxPoint x="330" y="129.3800000000001" as="targetPoint" />
            <mxPoint x="277.5999999999999" y="95" as="sourcePoint" />
            <Array as="points">
              <mxPoint x="278" y="99" />
              <mxPoint x="278" y="129" />
            </Array>
          </mxGeometry>
        </mxCell>
        <mxCell id="E0EMf9ibkUT7xpvl6s8r-45" value="Open messages" style="rounded=1;whiteSpace=wrap;html=1;arcSize=40;fontColor=#000000;fillColor=#ffffc0;strokeColor=#ff0000;" vertex="1" parent="E0EMf9ibkUT7xpvl6s8r-36">
          <mxGeometry x="300" y="124.38000000000011" width="120" height="40" as="geometry" />
        </mxCell>
        <mxCell id="E0EMf9ibkUT7xpvl6s8r-46" value="" style="edgeStyle=orthogonalEdgeStyle;html=1;verticalAlign=bottom;endArrow=open;endSize=8;strokeColor=#ff0000;rounded=0;" edge="1" parent="E0EMf9ibkUT7xpvl6s8r-36" source="E0EMf9ibkUT7xpvl6s8r-45" target="E0EMf9ibkUT7xpvl6s8r-47">
          <mxGeometry relative="1" as="geometry">
            <mxPoint x="370" y="209.3800000000001" as="targetPoint" />
          </mxGeometry>
        </mxCell>
        <mxCell id="E0EMf9ibkUT7xpvl6s8r-47" value="Send/ Reply in chat" style="rounded=1;whiteSpace=wrap;html=1;arcSize=40;fontColor=#000000;fillColor=#ffffc0;strokeColor=#ff0000;" vertex="1" parent="E0EMf9ibkUT7xpvl6s8r-36">
          <mxGeometry x="300" y="240.0000000000001" width="120" height="40" as="geometry" />
        </mxCell>
        <mxCell id="E0EMf9ibkUT7xpvl6s8r-48" value="Chat" style="text;align=center;fontStyle=1;verticalAlign=middle;spacingLeft=3;spacingRight=3;strokeColor=#82b366;rotatable=0;points=[[0,0.5],[1,0.5]];portConstraint=eastwest;html=1;fillColor=#d5e8d4;" vertex="1" parent="E0EMf9ibkUT7xpvl6s8r-36">
          <mxGeometry x="265" y="45" width="135" height="26" as="geometry" />
        </mxCell>
        <mxCell id="E0EMf9ibkUT7xpvl6s8r-49" value="Explore page" style="text;align=center;fontStyle=1;verticalAlign=middle;spacingLeft=3;spacingRight=3;strokeColor=none;rotatable=0;points=[[0,0.5],[1,0.5]];portConstraint=eastwest;html=1;" vertex="1" parent="E0EMf9ibkUT7xpvl6s8r-36">
          <mxGeometry x="135" y="185" width="80" height="26" as="geometry" />
        </mxCell>
        <mxCell id="E0EMf9ibkUT7xpvl6s8r-50" value="Chats page" style="text;align=center;fontStyle=1;verticalAlign=middle;spacingLeft=3;spacingRight=3;strokeColor=none;rotatable=0;points=[[0,0.5],[1,0.5]];portConstraint=eastwest;html=1;" vertex="1" parent="E0EMf9ibkUT7xpvl6s8r-36">
          <mxGeometry x="355" y="185" width="80" height="26" as="geometry" />
        </mxCell>
        <mxCell id="E0EMf9ibkUT7xpvl6s8r-51" value="" style="endArrow=none;dashed=1;html=1;rounded=0;" edge="1" parent="E0EMf9ibkUT7xpvl6s8r-36">
          <mxGeometry width="50" height="50" relative="1" as="geometry">
            <mxPoint x="235" y="320" as="sourcePoint" />
            <mxPoint x="235" y="20" as="targetPoint" />
          </mxGeometry>
        </mxCell>
        <mxCell id="E0EMf9ibkUT7xpvl6s8r-52" value="" style="endArrow=classic;html=1;rounded=0;entryX=0.5;entryY=0;entryDx=0;entryDy=0;" edge="1" parent="1" target="E0EMf9ibkUT7xpvl6s8r-30">
          <mxGeometry width="50" height="50" relative="1" as="geometry">
            <mxPoint x="565" y="1150" as="sourcePoint" />
            <mxPoint x="745" y="1280" as="targetPoint" />
            <Array as="points">
              <mxPoint x="600" y="1150" />
            </Array>
          </mxGeometry>
        </mxCell>
        <mxCell id="E0EMf9ibkUT7xpvl6s8r-53" value="Log Out" style="text;align=center;fontStyle=1;verticalAlign=middle;spacingLeft=3;spacingRight=3;strokeColor=none;rotatable=0;points=[[0,0.5],[1,0.5]];portConstraint=eastwest;html=1;" vertex="1" parent="1">
          <mxGeometry x="525" y="1120" width="135" height="26" as="geometry" />
        </mxCell>
      </root>
    </mxGraphModel>
  </diagram>
</mxfile>
